<svg width="125" height="125" viewBox="0 0 125 125" fill="none" xmlns="http://www.w3.org/2000/svg">
<g clip-path="url(#clip0_2:44)">
<path d="M62.0521 0C30.3125 0 32.2917 13.8333 32.2917 13.8333L32.3281 28.1667H62.6094V32.4688H20.3125C20.3125 32.4688 0 30.151 0 62.3385C0 94.526 17.724 93.3802 17.724 93.3802H28.2969V78.4479C28.2969 78.4479 27.7292 60.6354 45.7448 60.6354H75.776C75.776 60.6354 92.651 60.9062 92.651 44.2396V16.6771C92.651 16.6771 95.2083 0 62.0469 0H62.0521ZM45.3542 9.63542C48.3646 9.63542 50.8021 12.0833 50.8021 15.1146C50.8021 18.1406 48.3646 20.5885 45.3542 20.5885C42.3385 20.5885 39.9062 18.1406 39.9062 15.1146C39.9062 12.0833 42.3385 9.63542 45.3542 9.63542Z" fill="#4A4E69"/>
<path d="M62.9531 125C94.6823 125 92.7031 111.167 92.7031 111.167L92.6666 96.8333H62.3854V92.5313H104.693C104.693 92.5313 125.005 94.849 125.005 62.6615C125.005 30.474 107.276 31.6198 107.276 31.6198H96.7031V46.5521C96.7031 46.5521 97.2708 64.3646 79.2552 64.3646H49.2291C49.2291 64.3646 32.3541 64.0938 32.3541 80.7604V108.323C32.3541 108.323 29.7916 125 62.9531 125ZM79.651 115.365C76.6354 115.365 74.2031 112.917 74.2031 109.885C74.2031 106.859 76.6354 104.411 79.651 104.411C82.6614 104.411 85.0989 106.859 85.0989 109.885C85.0989 112.917 82.6614 115.365 79.651 115.365Z" fill="#4A4E69"/>
</g>
<defs>
<clipPath id="clip0_2:44">
<rect width="125" height="125" fill="white"/>
</clipPath>
</defs>
</svg>
