<svg width="50" height="50" viewBox="0 0 418 418" fill="none" xmlns="http://www.w3.org/2000/svg">
<path d="M209 417.333C93.9407 417.333 0.666672 324.059 0.666672 209C0.666672 93.9407 93.9407 0.666687 209 0.666687C324.059 0.666687 417.333 93.9407 417.333 209C417.207 324.007 324.007 417.207 209 417.333ZM209 42.3334C116.953 42.3334 42.3333 116.953 42.3333 209C42.3333 301.047 116.953 375.667 209 375.667C301.047 375.667 375.667 301.047 375.667 209C375.563 116.995 301.005 42.4367 209 42.3334ZM207.958 281.917L104.833 178.792L134.292 149.333L207.958 222.979L281.625 149.333L311.083 178.792L207.958 281.917Z" fill="#2E3A59"/>
</svg>
